<svg width="221" height="221" viewBox="0 0 221 221" fill="none" xmlns="http://www.w3.org/2000/svg">
<g clip-path="url(#clip0_2_57)">
<path d="M154.251 220.919H66.667C35.582 220.919 10.293 195.63 10.293 164.545V91.199C10.293 88.99 12.084 87.199 14.293 87.199H29.959V79.735C29.959 35.77 65.729 0 109.694 0H111.224C155.19 0 190.958 35.77 190.958 79.735V87.199H206.625C208.834 87.199 210.625 88.99 210.625 91.199V164.545C210.626 195.63 185.336 220.919 154.251 220.919ZM18.293 95.199V164.545C18.293 191.219 39.993 212.919 66.667 212.919H154.251C180.925 212.919 202.626 191.219 202.626 164.545V95.199H18.293ZM37.959 87.199H182.959V79.735C182.959 40.181 150.779 8 111.225 8H109.695C70.14 8 37.959 40.181 37.959 79.735V87.199ZM110.542 190.89H110.377C103.67 190.89 98.213 185.433 98.213 178.726V161.747C91.202 157.494 86.797 149.814 86.797 141.523C86.797 128.475 97.412 117.86 110.459 117.86C123.506 117.86 134.121 128.475 134.121 141.523C134.121 149.813 129.715 157.494 122.706 161.747V178.726C122.706 185.433 117.249 190.89 110.542 190.89ZM110.459 125.859C101.823 125.859 94.797 132.885 94.797 141.522C94.797 147.588 98.368 153.163 103.895 155.722C105.309 156.377 106.213 157.793 106.213 159.352V178.725C106.213 181.021 108.081 182.889 110.377 182.889H110.542C112.838 182.889 114.706 181.021 114.706 178.725V159.352C114.706 157.793 115.61 156.377 117.024 155.722C122.55 153.162 126.121 147.588 126.121 141.522C126.121 132.886 119.095 125.859 110.459 125.859Z" fill="white"/>
</g>
<defs>
<clipPath id="clip0_2_57">
<rect width="220.919" height="220.919" fill="white"/>
</clipPath>
</defs>
</svg>
