<svg width="492" height="342" viewBox="0 0 492 342" fill="none" xmlns="http://www.w3.org/2000/svg">
<path d="M488.56 151.977L405.127 68.544C402.97 66.388 400.045 65.176 396.995 65.176H337.13V21.312C337.13 9.768 327.148 0.0149994 315.333 0.0149994H21.297C9.554 0.0149994 0 9.568 0 21.312V265.261C0 277.005 9.554 286.559 21.297 286.559H56.284C61.547 317.928 88.877 341.913 121.718 341.913C154.559 341.913 181.889 317.929 187.152 286.559H339.422C344.685 317.928 372.015 341.913 404.856 341.913C437.703 341.913 465.038 317.921 470.293 286.542C470.406 286.546 470.516 286.56 470.63 286.56C482.374 286.56 491.927 277.006 491.927 265.263V160.108C491.928 157.059 490.716 154.134 488.56 151.977ZM392.231 88.176L454.947 150.892H337.13V88.176H392.231ZM56.459 263.56H23V23.015L314.13 23.016V263.56H186.977C181.315 232.672 154.217 209.185 121.718 209.185C89.22 209.185 62.121 232.672 56.459 263.56ZM121.718 318.913C97.807 318.913 78.354 299.46 78.354 275.549C78.354 251.638 97.807 232.185 121.718 232.185C145.629 232.185 165.082 251.638 165.082 275.549C165.083 299.46 145.629 318.913 121.718 318.913ZM404.856 318.913C380.945 318.913 361.492 299.46 361.492 275.549C361.492 251.638 380.945 232.185 404.856 232.185C428.767 232.185 448.22 251.638 448.22 275.549C448.221 299.46 428.767 318.913 404.856 318.913ZM404.856 209.185C372.357 209.185 345.259 232.672 339.597 263.56H337.129V173.892H468.927V258.281C461.307 230.035 435.477 209.185 404.856 209.185Z" fill="white"/>
</svg>
